<mxfile host="Electron" modified="2024-08-19T15:07:19.852Z" agent="Mozilla/5.0 (Windows NT 10.0; Win64; x64) AppleWebKit/537.36 (KHTML, like Gecko) draw.io/24.2.5 Chrome/120.0.6099.109 Electron/28.1.0 Safari/537.36" etag="FaaJV_ZKQ_KhXdjgNjrh" version="24.2.5" type="device" pages="3">
  <diagram name="KMP" id="AjlZS5QFBOv3GIELpBsU">
    <mxGraphModel dx="1038" dy="717" grid="1" gridSize="10" guides="1" tooltips="1" connect="1" arrows="1" fold="1" page="1" pageScale="1" pageWidth="827" pageHeight="1169" math="0" shadow="0">
      <root>
        <mxCell id="0" />
        <mxCell id="1" parent="0" />
        <mxCell id="bW-D60qsUh5rEk6J1FLn-1" value="a" style="whiteSpace=wrap;html=1;aspect=fixed;" parent="1" vertex="1">
          <mxGeometry x="65" y="337" width="30" height="30" as="geometry" />
        </mxCell>
        <mxCell id="bW-D60qsUh5rEk6J1FLn-2" value="b" style="whiteSpace=wrap;html=1;aspect=fixed;" parent="1" vertex="1">
          <mxGeometry x="95" y="337" width="30" height="30" as="geometry" />
        </mxCell>
        <mxCell id="bW-D60qsUh5rEk6J1FLn-3" value="a" style="whiteSpace=wrap;html=1;aspect=fixed;" parent="1" vertex="1">
          <mxGeometry x="125" y="337" width="30" height="30" as="geometry" />
        </mxCell>
        <mxCell id="bW-D60qsUh5rEk6J1FLn-4" value="c" style="whiteSpace=wrap;html=1;aspect=fixed;" parent="1" vertex="1">
          <mxGeometry x="215" y="337" width="30" height="30" as="geometry" />
        </mxCell>
        <mxCell id="bW-D60qsUh5rEk6J1FLn-5" value="b" style="whiteSpace=wrap;html=1;aspect=fixed;" parent="1" vertex="1">
          <mxGeometry x="155" y="337" width="30" height="30" as="geometry" />
        </mxCell>
        <mxCell id="bW-D60qsUh5rEk6J1FLn-6" value="a" style="whiteSpace=wrap;html=1;aspect=fixed;" parent="1" vertex="1">
          <mxGeometry x="185" y="337" width="30" height="30" as="geometry" />
        </mxCell>
        <mxCell id="bW-D60qsUh5rEk6J1FLn-7" value="&lt;font color=&quot;#ff3333&quot; style=&quot;font-size: 14px;&quot;&gt;S&lt;/font&gt;" style="text;html=1;align=center;verticalAlign=middle;resizable=0;points=[];autosize=1;strokeColor=none;fillColor=none;" parent="1" vertex="1">
          <mxGeometry x="10" y="335" width="30" height="30" as="geometry" />
        </mxCell>
        <mxCell id="bW-D60qsUh5rEk6J1FLn-8" value="a" style="whiteSpace=wrap;html=1;aspect=fixed;" parent="1" vertex="1">
          <mxGeometry x="65" y="417" width="30" height="30" as="geometry" />
        </mxCell>
        <mxCell id="bW-D60qsUh5rEk6J1FLn-9" value="c" style="whiteSpace=wrap;html=1;aspect=fixed;" parent="1" vertex="1">
          <mxGeometry x="155" y="417" width="30" height="30" as="geometry" />
        </mxCell>
        <mxCell id="bW-D60qsUh5rEk6J1FLn-10" value="b" style="whiteSpace=wrap;html=1;aspect=fixed;" parent="1" vertex="1">
          <mxGeometry x="95" y="417" width="30" height="30" as="geometry" />
        </mxCell>
        <mxCell id="bW-D60qsUh5rEk6J1FLn-11" value="a" style="whiteSpace=wrap;html=1;aspect=fixed;" parent="1" vertex="1">
          <mxGeometry x="125" y="417" width="30" height="30" as="geometry" />
        </mxCell>
        <mxCell id="bW-D60qsUh5rEk6J1FLn-13" value="&lt;font color=&quot;#ff3333&quot;&gt;&lt;b&gt;P&lt;/b&gt;&lt;/font&gt;" style="text;html=1;align=center;verticalAlign=middle;resizable=0;points=[];autosize=1;strokeColor=none;fillColor=none;" parent="1" vertex="1">
          <mxGeometry x="10" y="415" width="30" height="30" as="geometry" />
        </mxCell>
        <mxCell id="bW-D60qsUh5rEk6J1FLn-14" value="" style="endArrow=classic;html=1;rounded=0;" parent="1" edge="1">
          <mxGeometry width="50" height="50" relative="1" as="geometry">
            <mxPoint x="169.65999999999997" y="295" as="sourcePoint" />
            <mxPoint x="169.65999999999997" y="335" as="targetPoint" />
          </mxGeometry>
        </mxCell>
        <mxCell id="bW-D60qsUh5rEk6J1FLn-15" value="" style="endArrow=classic;html=1;rounded=0;" parent="1" edge="1">
          <mxGeometry width="50" height="50" relative="1" as="geometry">
            <mxPoint x="169.65999999999997" y="377" as="sourcePoint" />
            <mxPoint x="169.65999999999997" y="417" as="targetPoint" />
          </mxGeometry>
        </mxCell>
        <mxCell id="bW-D60qsUh5rEk6J1FLn-16" value="i" style="text;html=1;align=center;verticalAlign=middle;resizable=0;points=[];autosize=1;strokeColor=none;fillColor=none;" parent="1" vertex="1">
          <mxGeometry x="170" y="285" width="30" height="30" as="geometry" />
        </mxCell>
        <mxCell id="bW-D60qsUh5rEk6J1FLn-17" value="j" style="text;html=1;align=center;verticalAlign=middle;resizable=0;points=[];autosize=1;strokeColor=none;fillColor=none;" parent="1" vertex="1">
          <mxGeometry x="170" y="365" width="30" height="30" as="geometry" />
        </mxCell>
        <mxCell id="bW-D60qsUh5rEk6J1FLn-18" value="" style="shape=flexArrow;endArrow=classic;html=1;rounded=0;" parent="1" edge="1">
          <mxGeometry width="50" height="50" relative="1" as="geometry">
            <mxPoint x="268" y="387" as="sourcePoint" />
            <mxPoint x="318" y="387" as="targetPoint" />
          </mxGeometry>
        </mxCell>
        <mxCell id="bW-D60qsUh5rEk6J1FLn-19" value="暴力做法" style="text;html=1;align=center;verticalAlign=middle;resizable=0;points=[];autosize=1;strokeColor=none;fillColor=none;" parent="1" vertex="1">
          <mxGeometry x="250" y="345" width="70" height="30" as="geometry" />
        </mxCell>
        <mxCell id="bW-D60qsUh5rEk6J1FLn-20" value="a" style="whiteSpace=wrap;html=1;aspect=fixed;" parent="1" vertex="1">
          <mxGeometry x="355" y="335" width="30" height="30" as="geometry" />
        </mxCell>
        <mxCell id="bW-D60qsUh5rEk6J1FLn-21" value="b" style="whiteSpace=wrap;html=1;aspect=fixed;" parent="1" vertex="1">
          <mxGeometry x="385" y="335" width="30" height="30" as="geometry" />
        </mxCell>
        <mxCell id="bW-D60qsUh5rEk6J1FLn-22" value="a" style="whiteSpace=wrap;html=1;aspect=fixed;" parent="1" vertex="1">
          <mxGeometry x="415" y="335" width="30" height="30" as="geometry" />
        </mxCell>
        <mxCell id="bW-D60qsUh5rEk6J1FLn-23" value="c" style="whiteSpace=wrap;html=1;aspect=fixed;" parent="1" vertex="1">
          <mxGeometry x="505" y="335" width="30" height="30" as="geometry" />
        </mxCell>
        <mxCell id="bW-D60qsUh5rEk6J1FLn-24" value="b" style="whiteSpace=wrap;html=1;aspect=fixed;" parent="1" vertex="1">
          <mxGeometry x="445" y="335" width="30" height="30" as="geometry" />
        </mxCell>
        <mxCell id="bW-D60qsUh5rEk6J1FLn-25" value="a" style="whiteSpace=wrap;html=1;aspect=fixed;" parent="1" vertex="1">
          <mxGeometry x="475" y="335" width="30" height="30" as="geometry" />
        </mxCell>
        <mxCell id="bW-D60qsUh5rEk6J1FLn-26" value="a" style="whiteSpace=wrap;html=1;aspect=fixed;" parent="1" vertex="1">
          <mxGeometry x="355" y="415" width="30" height="30" as="geometry" />
        </mxCell>
        <mxCell id="bW-D60qsUh5rEk6J1FLn-27" value="c" style="whiteSpace=wrap;html=1;aspect=fixed;" parent="1" vertex="1">
          <mxGeometry x="445" y="415" width="30" height="30" as="geometry" />
        </mxCell>
        <mxCell id="bW-D60qsUh5rEk6J1FLn-28" value="b" style="whiteSpace=wrap;html=1;aspect=fixed;" parent="1" vertex="1">
          <mxGeometry x="385" y="415" width="30" height="30" as="geometry" />
        </mxCell>
        <mxCell id="bW-D60qsUh5rEk6J1FLn-29" value="a" style="whiteSpace=wrap;html=1;aspect=fixed;" parent="1" vertex="1">
          <mxGeometry x="415" y="415" width="30" height="30" as="geometry" />
        </mxCell>
        <mxCell id="bW-D60qsUh5rEk6J1FLn-30" value="" style="endArrow=classic;html=1;rounded=0;" parent="1" edge="1">
          <mxGeometry width="50" height="50" relative="1" as="geometry">
            <mxPoint x="405.34" y="295" as="sourcePoint" />
            <mxPoint x="405.34" y="335" as="targetPoint" />
          </mxGeometry>
        </mxCell>
        <mxCell id="bW-D60qsUh5rEk6J1FLn-31" value="" style="endArrow=classic;html=1;rounded=0;" parent="1" edge="1">
          <mxGeometry width="50" height="50" relative="1" as="geometry">
            <mxPoint x="375" y="377" as="sourcePoint" />
            <mxPoint x="375" y="415" as="targetPoint" />
          </mxGeometry>
        </mxCell>
        <mxCell id="bW-D60qsUh5rEk6J1FLn-32" value="i" style="text;html=1;align=center;verticalAlign=middle;resizable=0;points=[];autosize=1;strokeColor=none;fillColor=none;" parent="1" vertex="1">
          <mxGeometry x="405.68" y="285" width="30" height="30" as="geometry" />
        </mxCell>
        <mxCell id="bW-D60qsUh5rEk6J1FLn-33" value="j" style="text;html=1;align=center;verticalAlign=middle;resizable=0;points=[];autosize=1;strokeColor=none;fillColor=none;" parent="1" vertex="1">
          <mxGeometry x="375.34000000000003" y="363" width="30" height="30" as="geometry" />
        </mxCell>
        <mxCell id="bW-D60qsUh5rEk6J1FLn-34" value="" style="shape=flexArrow;endArrow=classic;html=1;rounded=0;" parent="1" edge="1">
          <mxGeometry width="50" height="50" relative="1" as="geometry">
            <mxPoint x="120" y="462.77" as="sourcePoint" />
            <mxPoint x="120" y="527" as="targetPoint" />
          </mxGeometry>
        </mxCell>
        <mxCell id="bW-D60qsUh5rEk6J1FLn-35" value="KMP" style="text;html=1;align=center;verticalAlign=middle;resizable=0;points=[];autosize=1;strokeColor=none;fillColor=none;" parent="1" vertex="1">
          <mxGeometry x="135" y="480" width="50" height="30" as="geometry" />
        </mxCell>
        <mxCell id="bW-D60qsUh5rEk6J1FLn-36" value="a" style="whiteSpace=wrap;html=1;aspect=fixed;" parent="1" vertex="1">
          <mxGeometry x="65" y="580" width="30" height="30" as="geometry" />
        </mxCell>
        <mxCell id="bW-D60qsUh5rEk6J1FLn-37" value="b" style="whiteSpace=wrap;html=1;aspect=fixed;" parent="1" vertex="1">
          <mxGeometry x="95" y="580" width="30" height="30" as="geometry" />
        </mxCell>
        <mxCell id="bW-D60qsUh5rEk6J1FLn-38" value="a" style="whiteSpace=wrap;html=1;aspect=fixed;" parent="1" vertex="1">
          <mxGeometry x="125" y="580" width="30" height="30" as="geometry" />
        </mxCell>
        <mxCell id="bW-D60qsUh5rEk6J1FLn-39" value="c" style="whiteSpace=wrap;html=1;aspect=fixed;" parent="1" vertex="1">
          <mxGeometry x="215" y="580" width="30" height="30" as="geometry" />
        </mxCell>
        <mxCell id="bW-D60qsUh5rEk6J1FLn-40" value="b" style="whiteSpace=wrap;html=1;aspect=fixed;" parent="1" vertex="1">
          <mxGeometry x="155" y="580" width="30" height="30" as="geometry" />
        </mxCell>
        <mxCell id="bW-D60qsUh5rEk6J1FLn-41" value="a" style="whiteSpace=wrap;html=1;aspect=fixed;" parent="1" vertex="1">
          <mxGeometry x="185" y="580" width="30" height="30" as="geometry" />
        </mxCell>
        <mxCell id="bW-D60qsUh5rEk6J1FLn-42" value="a" style="whiteSpace=wrap;html=1;aspect=fixed;" parent="1" vertex="1">
          <mxGeometry x="65" y="662" width="30" height="30" as="geometry" />
        </mxCell>
        <mxCell id="bW-D60qsUh5rEk6J1FLn-43" value="c" style="whiteSpace=wrap;html=1;aspect=fixed;" parent="1" vertex="1">
          <mxGeometry x="155" y="662" width="30" height="30" as="geometry" />
        </mxCell>
        <mxCell id="bW-D60qsUh5rEk6J1FLn-44" value="b" style="whiteSpace=wrap;html=1;aspect=fixed;" parent="1" vertex="1">
          <mxGeometry x="95" y="662" width="30" height="30" as="geometry" />
        </mxCell>
        <mxCell id="bW-D60qsUh5rEk6J1FLn-45" value="a" style="whiteSpace=wrap;html=1;aspect=fixed;" parent="1" vertex="1">
          <mxGeometry x="125" y="662" width="30" height="30" as="geometry" />
        </mxCell>
        <mxCell id="bW-D60qsUh5rEk6J1FLn-46" value="" style="endArrow=classic;html=1;rounded=0;" parent="1" edge="1">
          <mxGeometry width="50" height="50" relative="1" as="geometry">
            <mxPoint x="165" y="540" as="sourcePoint" />
            <mxPoint x="165" y="580" as="targetPoint" />
          </mxGeometry>
        </mxCell>
        <mxCell id="bW-D60qsUh5rEk6J1FLn-47" value="" style="endArrow=classic;html=1;rounded=0;" parent="1" edge="1">
          <mxGeometry width="50" height="50" relative="1" as="geometry">
            <mxPoint x="105" y="624" as="sourcePoint" />
            <mxPoint x="105" y="662" as="targetPoint" />
          </mxGeometry>
        </mxCell>
        <mxCell id="bW-D60qsUh5rEk6J1FLn-48" value="i" style="text;html=1;align=center;verticalAlign=middle;resizable=0;points=[];autosize=1;strokeColor=none;fillColor=none;" parent="1" vertex="1">
          <mxGeometry x="165.34000000000003" y="530" width="30" height="30" as="geometry" />
        </mxCell>
        <mxCell id="bW-D60qsUh5rEk6J1FLn-49" value="j" style="text;html=1;align=center;verticalAlign=middle;resizable=0;points=[];autosize=1;strokeColor=none;fillColor=none;" parent="1" vertex="1">
          <mxGeometry x="105.34000000000003" y="610" width="30" height="30" as="geometry" />
        </mxCell>
        <mxCell id="bW-D60qsUh5rEk6J1FLn-50" value="&lt;font style=&quot;font-size: 10px;&quot;&gt;Next array&lt;/font&gt;" style="text;html=1;align=center;verticalAlign=middle;resizable=0;points=[];autosize=1;strokeColor=none;fillColor=none;" parent="1" vertex="1">
          <mxGeometry y="690" width="70" height="30" as="geometry" />
        </mxCell>
        <mxCell id="bW-D60qsUh5rEk6J1FLn-51" value="-1" style="text;html=1;align=center;verticalAlign=middle;resizable=0;points=[];autosize=1;strokeColor=none;fillColor=none;" parent="1" vertex="1">
          <mxGeometry x="60" y="690" width="30" height="30" as="geometry" />
        </mxCell>
        <mxCell id="bW-D60qsUh5rEk6J1FLn-52" value="0" style="text;html=1;align=center;verticalAlign=middle;resizable=0;points=[];autosize=1;strokeColor=none;fillColor=none;" parent="1" vertex="1">
          <mxGeometry x="90" y="690" width="30" height="30" as="geometry" />
        </mxCell>
        <mxCell id="bW-D60qsUh5rEk6J1FLn-53" value="0" style="text;html=1;align=center;verticalAlign=middle;resizable=0;points=[];autosize=1;strokeColor=none;fillColor=none;" parent="1" vertex="1">
          <mxGeometry x="125" y="690" width="30" height="30" as="geometry" />
        </mxCell>
        <mxCell id="bW-D60qsUh5rEk6J1FLn-54" value="1" style="text;html=1;align=center;verticalAlign=middle;resizable=0;points=[];autosize=1;strokeColor=none;fillColor=none;" parent="1" vertex="1">
          <mxGeometry x="155" y="690" width="30" height="30" as="geometry" />
        </mxCell>
        <mxCell id="bW-D60qsUh5rEk6J1FLn-55" value="&lt;font color=&quot;#ff3333&quot; face=&quot;Lucida Console&quot;&gt;i不变&lt;/font&gt;&lt;div&gt;&lt;font color=&quot;#ff3333&quot; face=&quot;XQqsxluDvumf2vtW7b2o&quot;&gt;j=next[j]&lt;/font&gt;&lt;/div&gt;" style="text;html=1;align=center;verticalAlign=middle;resizable=0;points=[];autosize=1;strokeColor=none;fillColor=none;" parent="1" vertex="1">
          <mxGeometry y="585" width="70" height="40" as="geometry" />
        </mxCell>
        <mxCell id="bW-D60qsUh5rEk6J1FLn-56" value="&lt;font color=&quot;#ff3333&quot;&gt;i不断回溯&lt;/font&gt;&lt;div&gt;&lt;font color=&quot;#ff3333&quot;&gt;j = 0&lt;/font&gt;&lt;/div&gt;" style="text;html=1;align=center;verticalAlign=middle;resizable=0;points=[];autosize=1;strokeColor=none;fillColor=none;" parent="1" vertex="1">
          <mxGeometry x="310" y="280" width="70" height="40" as="geometry" />
        </mxCell>
        <mxCell id="bW-D60qsUh5rEk6J1FLn-58" value="a" style="whiteSpace=wrap;html=1;aspect=fixed;" parent="1" vertex="1">
          <mxGeometry x="330.68" y="520" width="30" height="30" as="geometry" />
        </mxCell>
        <mxCell id="bW-D60qsUh5rEk6J1FLn-59" value="b" style="whiteSpace=wrap;html=1;aspect=fixed;" parent="1" vertex="1">
          <mxGeometry x="360.68" y="520" width="30" height="30" as="geometry" />
        </mxCell>
        <mxCell id="bW-D60qsUh5rEk6J1FLn-60" value="a" style="whiteSpace=wrap;html=1;aspect=fixed;" parent="1" vertex="1">
          <mxGeometry x="390.68" y="520" width="30" height="30" as="geometry" />
        </mxCell>
        <mxCell id="bW-D60qsUh5rEk6J1FLn-61" value="b" style="whiteSpace=wrap;html=1;aspect=fixed;" parent="1" vertex="1">
          <mxGeometry x="480.68" y="520" width="30" height="30" as="geometry" />
        </mxCell>
        <mxCell id="bW-D60qsUh5rEk6J1FLn-62" value="b" style="whiteSpace=wrap;html=1;aspect=fixed;" parent="1" vertex="1">
          <mxGeometry x="420.68" y="520" width="30" height="30" as="geometry" />
        </mxCell>
        <mxCell id="bW-D60qsUh5rEk6J1FLn-63" value="a" style="whiteSpace=wrap;html=1;aspect=fixed;" parent="1" vertex="1">
          <mxGeometry x="450.68" y="520" width="30" height="30" as="geometry" />
        </mxCell>
        <mxCell id="bW-D60qsUh5rEk6J1FLn-64" value="" style="endArrow=none;dashed=1;html=1;rounded=0;" parent="1" edge="1">
          <mxGeometry width="50" height="50" relative="1" as="geometry">
            <mxPoint x="280" y="700" as="sourcePoint" />
            <mxPoint x="280" y="480" as="targetPoint" />
          </mxGeometry>
        </mxCell>
        <mxCell id="bW-D60qsUh5rEk6J1FLn-65" value="" style="endArrow=none;dashed=1;html=1;rounded=0;" parent="1" edge="1">
          <mxGeometry width="50" height="50" relative="1" as="geometry">
            <mxPoint x="280" y="480" as="sourcePoint" />
            <mxPoint x="540" y="480" as="targetPoint" />
          </mxGeometry>
        </mxCell>
        <mxCell id="bW-D60qsUh5rEk6J1FLn-66" value="Next array 的求法" style="text;html=1;align=center;verticalAlign=middle;resizable=0;points=[];autosize=1;strokeColor=none;fillColor=none;" parent="1" vertex="1">
          <mxGeometry x="270.68" y="480" width="120" height="30" as="geometry" />
        </mxCell>
        <mxCell id="bW-D60qsUh5rEk6J1FLn-67" value="Next" style="text;html=1;align=center;verticalAlign=middle;resizable=0;points=[];autosize=1;strokeColor=none;fillColor=none;" parent="1" vertex="1">
          <mxGeometry x="270.68" y="550" width="50" height="30" as="geometry" />
        </mxCell>
        <mxCell id="bW-D60qsUh5rEk6J1FLn-68" value="-1" style="text;html=1;align=center;verticalAlign=middle;resizable=0;points=[];autosize=1;strokeColor=none;fillColor=none;" parent="1" vertex="1">
          <mxGeometry x="330" y="550" width="30" height="30" as="geometry" />
        </mxCell>
        <mxCell id="bW-D60qsUh5rEk6J1FLn-69" value="0" style="text;html=1;align=center;verticalAlign=middle;resizable=0;points=[];autosize=1;strokeColor=none;fillColor=none;" parent="1" vertex="1">
          <mxGeometry x="360.68" y="550" width="30" height="30" as="geometry" />
        </mxCell>
        <mxCell id="bW-D60qsUh5rEk6J1FLn-70" value="0" style="text;html=1;align=center;verticalAlign=middle;resizable=0;points=[];autosize=1;strokeColor=none;fillColor=none;" parent="1" vertex="1">
          <mxGeometry x="390.68" y="550" width="30" height="30" as="geometry" />
        </mxCell>
        <mxCell id="bW-D60qsUh5rEk6J1FLn-71" value="1" style="text;html=1;align=center;verticalAlign=middle;resizable=0;points=[];autosize=1;strokeColor=none;fillColor=none;" parent="1" vertex="1">
          <mxGeometry x="420.68" y="550" width="30" height="30" as="geometry" />
        </mxCell>
        <mxCell id="bW-D60qsUh5rEk6J1FLn-72" value="2" style="text;html=1;align=center;verticalAlign=middle;resizable=0;points=[];autosize=1;strokeColor=none;fillColor=none;" parent="1" vertex="1">
          <mxGeometry x="450.68" y="550" width="30" height="30" as="geometry" />
        </mxCell>
        <mxCell id="bW-D60qsUh5rEk6J1FLn-73" value="？" style="text;html=1;align=center;verticalAlign=middle;resizable=0;points=[];autosize=1;strokeColor=none;fillColor=none;" parent="1" vertex="1">
          <mxGeometry x="475.68" y="550" width="40" height="30" as="geometry" />
        </mxCell>
        <mxCell id="bW-D60qsUh5rEk6J1FLn-74" value="&lt;font style=&quot;font-size: 8px;&quot; face=&quot;Lucida Console&quot;&gt;求next[5]:&lt;/font&gt;&lt;div style=&quot;font-size: 8px;&quot;&gt;&lt;font style=&quot;font-size: 8px;&quot; face=&quot;u3iK7wLZ1GxjPTUcQJvU&quot;&gt;if(P[4] == P[next[4]]&amp;nbsp;&lt;/font&gt;&lt;/div&gt;&lt;div style=&quot;font-size: 8px;&quot;&gt;&lt;font style=&quot;font-size: 8px;&quot; face=&quot;u3iK7wLZ1GxjPTUcQJvU&quot;&gt;next[5] = next[4] + 1;&lt;/font&gt;&lt;/div&gt;&lt;div style=&quot;font-size: 8px;&quot;&gt;&lt;font style=&quot;font-size: 8px;&quot; face=&quot;u3iK7wLZ1GxjPTUcQJvU&quot;&gt;else if(p[4] == P[next[next[4]]&lt;/font&gt;&lt;/div&gt;&lt;div style=&quot;font-size: 8px;&quot;&gt;&lt;font style=&quot;font-size: 8px;&quot; face=&quot;u3iK7wLZ1GxjPTUcQJvU&quot;&gt;next[5] = next[next[4]] +1&lt;/font&gt;&lt;/div&gt;&lt;div style=&quot;font-size: 8px;&quot;&gt;&lt;font style=&quot;font-size: 8px;&quot; face=&quot;u3iK7wLZ1GxjPTUcQJvU&quot;&gt;else&lt;/font&gt;&lt;span style=&quot;font-family: u3iK7wLZ1GxjPTUcQJvU; background-color: initial;&quot;&gt;…………&lt;/span&gt;&lt;/div&gt;" style="text;html=1;align=center;verticalAlign=middle;resizable=0;points=[];autosize=1;strokeColor=none;fillColor=none;" parent="1" vertex="1">
          <mxGeometry x="280.68" y="585" width="140" height="80" as="geometry" />
        </mxCell>
        <mxCell id="bW-D60qsUh5rEk6J1FLn-76" value="&lt;font face=&quot;Lucida Console&quot; style=&quot;font-size: 8px;&quot;&gt;求next[i]:&lt;/font&gt;&lt;div style=&quot;font-size: 8px;&quot;&gt;&lt;font face=&quot;zGy-uhngcRPZKJLIgJQ2&quot; style=&quot;font-size: 8px;&quot;&gt;if(P[i-1] == P[next[i-1]])&lt;/font&gt;&lt;/div&gt;&lt;div style=&quot;font-size: 8px;&quot;&gt;&lt;font face=&quot;zGy-uhngcRPZKJLIgJQ2&quot; style=&quot;font-size: 8px;&quot;&gt;next[i] = next[i-1] + 1;&lt;/font&gt;&lt;/div&gt;&lt;div style=&quot;font-size: 8px;&quot;&gt;&lt;font face=&quot;zGy-uhngcRPZKJLIgJQ2&quot; style=&quot;font-size: 8px;&quot;&gt;else if(P[i-1] == P[next[next[i-1]]&lt;/font&gt;&lt;/div&gt;&lt;div style=&quot;font-size: 8px;&quot;&gt;&lt;font face=&quot;zGy-uhngcRPZKJLIgJQ2&quot; style=&quot;font-size: 8px;&quot;&gt;next[i] = next[next[i-1]]&lt;/font&gt;&lt;/div&gt;&lt;div style=&quot;font-size: 8px;&quot;&gt;&lt;font face=&quot;zGy-uhngcRPZKJLIgJQ2&quot; style=&quot;font-size: 8px;&quot;&gt;else……&lt;/font&gt;&lt;/div&gt;" style="text;html=1;align=center;verticalAlign=middle;resizable=0;points=[];autosize=1;strokeColor=none;fillColor=none;" parent="1" vertex="1">
          <mxGeometry x="409" y="585" width="150" height="80" as="geometry" />
        </mxCell>
      </root>
    </mxGraphModel>
  </diagram>
  <diagram id="rBfhZvxR3InBGDNPu300" name="class035">
    <mxGraphModel dx="415" dy="287" grid="1" gridSize="10" guides="1" tooltips="1" connect="1" arrows="1" fold="1" page="1" pageScale="1" pageWidth="827" pageHeight="1169" math="0" shadow="0">
      <root>
        <mxCell id="0" />
        <mxCell id="1" parent="0" />
        <mxCell id="SYMwyRTNY7LIQnySU4Nt-1" value="&lt;font style=&quot;font-size: 10px;&quot;&gt;add(依次加入的数) : &lt;font style=&quot;font-size: 10px;&quot; color=&quot;#ff3333&quot;&gt;a&lt;/font&gt;&lt;font style=&quot;font-size: 10px;&quot; color=&quot;#ffcccc&quot;&gt; &lt;/font&gt;, &lt;font style=&quot;font-size: 10px;&quot; color=&quot;#66ff66&quot;&gt;b&lt;/font&gt; , &lt;font style=&quot;font-size: 10px;&quot; color=&quot;#00ffff&quot;&gt;a&lt;/font&gt; , &lt;font style=&quot;font-size: 10px;&quot; color=&quot;#0000ff&quot;&gt;b&lt;/font&gt;&amp;nbsp;&lt;/font&gt;" style="text;html=1;align=center;verticalAlign=middle;resizable=0;points=[];autosize=1;strokeColor=none;fillColor=none;" vertex="1" parent="1">
          <mxGeometry x="70" y="373" width="170" height="30" as="geometry" />
        </mxCell>
        <mxCell id="SYMwyRTNY7LIQnySU4Nt-2" value="&lt;font color=&quot;#ff3333&quot;&gt;val_cnt(记录词频)&lt;/font&gt;&lt;div style=&quot;font-size: 10px;&quot;&gt;key&amp;nbsp; &amp;nbsp; cnt&lt;/div&gt;&lt;div style=&quot;font-size: 10px;&quot;&gt;a&amp;nbsp; &amp;nbsp; &amp;nbsp; &amp;nbsp;2&lt;/div&gt;&lt;div style=&quot;font-size: 10px;&quot;&gt;&lt;span style=&quot;background-color: initial; font-size: 10px;&quot;&gt;b&amp;nbsp; &amp;nbsp; &amp;nbsp; &amp;nbsp;2&lt;/span&gt;&lt;/div&gt;&lt;div style=&quot;font-size: 10px;&quot;&gt;&lt;br style=&quot;font-size: 10px;&quot;&gt;&lt;/div&gt;" style="text;html=1;align=center;verticalAlign=middle;resizable=0;points=[];autosize=1;strokeColor=none;fillColor=none;fontSize=10;" vertex="1" parent="1">
          <mxGeometry x="150" y="303" width="100" height="70" as="geometry" />
        </mxCell>
        <mxCell id="SYMwyRTNY7LIQnySU4Nt-3" value="&lt;font color=&quot;#ff3333&quot; style=&quot;font-size: 10px;&quot;&gt;times_cnt&lt;/font&gt;" style="text;html=1;align=center;verticalAlign=middle;resizable=0;points=[];autosize=1;strokeColor=none;fillColor=none;" vertex="1" parent="1">
          <mxGeometry x="50" y="298" width="70" height="30" as="geometry" />
        </mxCell>
        <mxCell id="SYMwyRTNY7LIQnySU4Nt-4" value="times" style="text;html=1;align=center;verticalAlign=middle;resizable=0;points=[];autosize=1;strokeColor=none;fillColor=none;fontSize=9;" vertex="1" parent="1">
          <mxGeometry x="50" y="318" width="50" height="20" as="geometry" />
        </mxCell>
        <mxCell id="SYMwyRTNY7LIQnySU4Nt-5" value="2&lt;div style=&quot;font-size: 9px;&quot;&gt;1&lt;/div&gt;" style="text;html=1;align=center;verticalAlign=middle;resizable=0;points=[];autosize=1;strokeColor=none;fillColor=none;fontSize=9;" vertex="1" parent="1">
          <mxGeometry x="60" y="333" width="30" height="40" as="geometry" />
        </mxCell>
        <mxCell id="SYMwyRTNY7LIQnySU4Nt-6" value="{ &lt;font color=&quot;#00ffff&quot;&gt;a&lt;/font&gt; , &lt;font color=&quot;#0000ff&quot;&gt;b&lt;/font&gt; }&lt;div style=&quot;font-size: 9px;&quot;&gt;{ &lt;font color=&quot;#ff3333&quot;&gt;a &lt;/font&gt;, &lt;font color=&quot;#66ff66&quot;&gt;b&lt;/font&gt; }&lt;/div&gt;" style="text;html=1;align=center;verticalAlign=middle;resizable=0;points=[];autosize=1;strokeColor=none;fillColor=none;fontSize=9;" vertex="1" parent="1">
          <mxGeometry x="95" y="333" width="50" height="40" as="geometry" />
        </mxCell>
        <mxCell id="SYMwyRTNY7LIQnySU4Nt-7" value="&lt;font color=&quot;#ff3333&quot; style=&quot;font-size: 10px;&quot;&gt;top_times ：2&lt;/font&gt;" style="text;html=1;align=center;verticalAlign=middle;resizable=0;points=[];autosize=1;strokeColor=none;fillColor=none;" vertex="1" parent="1">
          <mxGeometry x="160" y="350" width="90" height="30" as="geometry" />
        </mxCell>
      </root>
    </mxGraphModel>
  </diagram>
  <diagram id="nZFm9M0kmMGzYErVqR6u" name="class035 all-O(1)">
    <mxGraphModel dx="716" dy="494" grid="1" gridSize="10" guides="1" tooltips="1" connect="1" arrows="1" fold="1" page="1" pageScale="1" pageWidth="827" pageHeight="1169" math="0" shadow="0">
      <root>
        <mxCell id="0" />
        <mxCell id="1" parent="0" />
        <mxCell id="snM5C4zPWYndFwAIb4mU-2" value="" style="rounded=0;whiteSpace=wrap;html=1;" vertex="1" parent="1">
          <mxGeometry x="180" y="340" width="40" height="120" as="geometry" />
        </mxCell>
        <mxCell id="snM5C4zPWYndFwAIb4mU-3" value="" style="endArrow=none;html=1;rounded=0;exitX=0;exitY=0.25;exitDx=0;exitDy=0;entryX=1;entryY=0.25;entryDx=0;entryDy=0;" edge="1" parent="1" source="snM5C4zPWYndFwAIb4mU-2" target="snM5C4zPWYndFwAIb4mU-2">
          <mxGeometry width="50" height="50" relative="1" as="geometry">
            <mxPoint x="220" y="330" as="sourcePoint" />
            <mxPoint x="270" y="280" as="targetPoint" />
          </mxGeometry>
        </mxCell>
        <mxCell id="snM5C4zPWYndFwAIb4mU-4" value="0" style="text;html=1;align=center;verticalAlign=middle;resizable=0;points=[];autosize=1;strokeColor=none;fillColor=none;fontColor=#FF3333;" vertex="1" parent="1">
          <mxGeometry x="185" y="340" width="30" height="30" as="geometry" />
        </mxCell>
        <mxCell id="snM5C4zPWYndFwAIb4mU-5" value="&quot;&quot;" style="text;html=1;align=center;verticalAlign=middle;resizable=0;points=[];autosize=1;strokeColor=none;fillColor=none;" vertex="1" parent="1">
          <mxGeometry x="185" y="398" width="30" height="30" as="geometry" />
        </mxCell>
        <mxCell id="snM5C4zPWYndFwAIb4mU-6" value="" style="rounded=0;whiteSpace=wrap;html=1;" vertex="1" parent="1">
          <mxGeometry x="404" y="340" width="40" height="120" as="geometry" />
        </mxCell>
        <mxCell id="snM5C4zPWYndFwAIb4mU-7" value="" style="endArrow=none;html=1;rounded=0;exitX=0;exitY=0.25;exitDx=0;exitDy=0;entryX=1;entryY=0.25;entryDx=0;entryDy=0;" edge="1" parent="1" source="snM5C4zPWYndFwAIb4mU-6" target="snM5C4zPWYndFwAIb4mU-6">
          <mxGeometry width="50" height="50" relative="1" as="geometry">
            <mxPoint x="444" y="330" as="sourcePoint" />
            <mxPoint x="494" y="280" as="targetPoint" />
          </mxGeometry>
        </mxCell>
        <mxCell id="snM5C4zPWYndFwAIb4mU-8" value="&lt;font style=&quot;font-size: 8px;&quot;&gt;&lt;b&gt;INT_MAX&lt;/b&gt;&lt;/font&gt;" style="text;html=1;align=center;verticalAlign=middle;resizable=0;points=[];autosize=1;strokeColor=none;fillColor=none;fontColor=#FF3333;" vertex="1" parent="1">
          <mxGeometry x="394" y="340" width="60" height="30" as="geometry" />
        </mxCell>
        <mxCell id="snM5C4zPWYndFwAIb4mU-9" value="&quot;&quot;" style="text;html=1;align=center;verticalAlign=middle;resizable=0;points=[];autosize=1;strokeColor=none;fillColor=none;" vertex="1" parent="1">
          <mxGeometry x="409" y="398" width="30" height="30" as="geometry" />
        </mxCell>
        <mxCell id="snM5C4zPWYndFwAIb4mU-10" value="" style="rounded=0;whiteSpace=wrap;html=1;" vertex="1" parent="1">
          <mxGeometry x="239" y="218" width="140" height="100" as="geometry" />
        </mxCell>
        <mxCell id="snM5C4zPWYndFwAIb4mU-11" value="" style="endArrow=none;html=1;rounded=0;entryX=1;entryY=0.25;entryDx=0;entryDy=0;exitX=0;exitY=0.25;exitDx=0;exitDy=0;" edge="1" parent="1" source="snM5C4zPWYndFwAIb4mU-10" target="snM5C4zPWYndFwAIb4mU-10">
          <mxGeometry width="50" height="50" relative="1" as="geometry">
            <mxPoint x="89" y="278" as="sourcePoint" />
            <mxPoint x="139" y="228" as="targetPoint" />
          </mxGeometry>
        </mxCell>
        <mxCell id="snM5C4zPWYndFwAIb4mU-12" value="&lt;font color=&quot;#ff3333&quot;&gt;&lt;b&gt;str_addr&lt;/b&gt;&lt;/font&gt;" style="text;html=1;align=center;verticalAlign=middle;resizable=0;points=[];autosize=1;strokeColor=none;fillColor=none;" vertex="1" parent="1">
          <mxGeometry x="234" y="188" width="70" height="30" as="geometry" />
        </mxCell>
        <mxCell id="snM5C4zPWYndFwAIb4mU-13" value="" style="endArrow=none;html=1;rounded=0;entryX=0.5;entryY=0;entryDx=0;entryDy=0;exitX=0.5;exitY=1;exitDx=0;exitDy=0;" edge="1" parent="1" source="snM5C4zPWYndFwAIb4mU-10" target="snM5C4zPWYndFwAIb4mU-10">
          <mxGeometry width="50" height="50" relative="1" as="geometry">
            <mxPoint x="129" y="338" as="sourcePoint" />
            <mxPoint x="179" y="288" as="targetPoint" />
          </mxGeometry>
        </mxCell>
        <mxCell id="snM5C4zPWYndFwAIb4mU-14" value="&lt;b&gt;string&lt;/b&gt;" style="text;html=1;align=center;verticalAlign=middle;resizable=0;points=[];autosize=1;strokeColor=none;fillColor=none;" vertex="1" parent="1">
          <mxGeometry x="244" y="218" width="60" height="30" as="geometry" />
        </mxCell>
        <mxCell id="snM5C4zPWYndFwAIb4mU-15" value="&lt;b&gt;address&lt;/b&gt;" style="text;html=1;align=center;verticalAlign=middle;resizable=0;points=[];autosize=1;strokeColor=none;fillColor=none;" vertex="1" parent="1">
          <mxGeometry x="304" y="218" width="70" height="30" as="geometry" />
        </mxCell>
        <mxCell id="snM5C4zPWYndFwAIb4mU-16" value="" style="endArrow=none;html=1;rounded=0;entryX=1;entryY=0.5;entryDx=0;entryDy=0;exitX=0;exitY=0.5;exitDx=0;exitDy=0;" edge="1" parent="1" source="snM5C4zPWYndFwAIb4mU-21" target="snM5C4zPWYndFwAIb4mU-10">
          <mxGeometry width="50" height="50" relative="1" as="geometry">
            <mxPoint x="149" y="328" as="sourcePoint" />
            <mxPoint x="199" y="278" as="targetPoint" />
          </mxGeometry>
        </mxCell>
        <mxCell id="snM5C4zPWYndFwAIb4mU-17" value="" style="endArrow=none;html=1;rounded=0;entryX=1;entryY=0.75;entryDx=0;entryDy=0;exitX=0;exitY=0.75;exitDx=0;exitDy=0;" edge="1" parent="1" source="snM5C4zPWYndFwAIb4mU-10" target="snM5C4zPWYndFwAIb4mU-10">
          <mxGeometry width="50" height="50" relative="1" as="geometry">
            <mxPoint x="279" y="348" as="sourcePoint" />
            <mxPoint x="329" y="298" as="targetPoint" />
          </mxGeometry>
        </mxCell>
        <mxCell id="snM5C4zPWYndFwAIb4mU-18" value="&lt;b&gt;a&lt;font color=&quot;#ff3333&quot;&gt;(2)&lt;/font&gt;&lt;/b&gt;" style="text;html=1;align=center;verticalAlign=middle;resizable=0;points=[];autosize=1;strokeColor=none;fillColor=none;" vertex="1" parent="1">
          <mxGeometry x="254" y="238" width="40" height="30" as="geometry" />
        </mxCell>
        <mxCell id="snM5C4zPWYndFwAIb4mU-19" value="&lt;b&gt;b&lt;font color=&quot;#ff3333&quot;&gt;(2)&lt;/font&gt;&lt;/b&gt;" style="text;html=1;align=center;verticalAlign=middle;resizable=0;points=[];autosize=1;strokeColor=none;fillColor=none;" vertex="1" parent="1">
          <mxGeometry x="249" y="268" width="50" height="30" as="geometry" />
        </mxCell>
        <mxCell id="snM5C4zPWYndFwAIb4mU-20" value="&lt;b&gt;c&lt;font color=&quot;#ff3333&quot;&gt;(1)&lt;/font&gt;&lt;/b&gt;" style="text;html=1;align=center;verticalAlign=middle;resizable=0;points=[];autosize=1;strokeColor=none;fillColor=none;" vertex="1" parent="1">
          <mxGeometry x="254" y="288" width="40" height="30" as="geometry" />
        </mxCell>
        <mxCell id="snM5C4zPWYndFwAIb4mU-22" value="" style="endArrow=none;html=1;rounded=0;entryX=1;entryY=0.5;entryDx=0;entryDy=0;exitX=0;exitY=0.5;exitDx=0;exitDy=0;" edge="1" parent="1" source="snM5C4zPWYndFwAIb4mU-10" target="snM5C4zPWYndFwAIb4mU-21">
          <mxGeometry width="50" height="50" relative="1" as="geometry">
            <mxPoint x="239" y="268" as="sourcePoint" />
            <mxPoint x="379" y="268" as="targetPoint" />
          </mxGeometry>
        </mxCell>
        <mxCell id="snM5C4zPWYndFwAIb4mU-21" value="&lt;font color=&quot;#ff3333&quot; size=&quot;1&quot; style=&quot;&quot;&gt;&lt;b style=&quot;font-size: 6px;&quot;&gt;address是指&lt;/b&gt;&lt;/font&gt;&lt;div&gt;&lt;font color=&quot;#ff3333&quot; size=&quot;1&quot; style=&quot;&quot;&gt;&lt;b style=&quot;font-size: 6px;&quot;&gt;字符串对应的桶的内存地址&lt;/b&gt;&lt;/font&gt;&lt;/div&gt;" style="text;html=1;align=center;verticalAlign=middle;resizable=0;points=[];autosize=1;strokeColor=none;fillColor=none;" vertex="1" parent="1">
          <mxGeometry x="294" y="248" width="100" height="40" as="geometry" />
        </mxCell>
        <mxCell id="snM5C4zPWYndFwAIb4mU-23" value="" style="rounded=0;whiteSpace=wrap;html=1;" vertex="1" parent="1">
          <mxGeometry x="255" y="340" width="40" height="120" as="geometry" />
        </mxCell>
        <mxCell id="snM5C4zPWYndFwAIb4mU-24" value="" style="endArrow=none;html=1;rounded=0;exitX=0;exitY=0.25;exitDx=0;exitDy=0;entryX=1;entryY=0.25;entryDx=0;entryDy=0;" edge="1" parent="1" source="snM5C4zPWYndFwAIb4mU-23" target="snM5C4zPWYndFwAIb4mU-23">
          <mxGeometry width="50" height="50" relative="1" as="geometry">
            <mxPoint x="295" y="330" as="sourcePoint" />
            <mxPoint x="345" y="280" as="targetPoint" />
          </mxGeometry>
        </mxCell>
        <mxCell id="snM5C4zPWYndFwAIb4mU-25" value="1" style="text;html=1;align=center;verticalAlign=middle;resizable=0;points=[];autosize=1;strokeColor=none;fillColor=none;fontColor=#FF3333;" vertex="1" parent="1">
          <mxGeometry x="260" y="340" width="30" height="30" as="geometry" />
        </mxCell>
        <mxCell id="snM5C4zPWYndFwAIb4mU-26" value="&lt;b&gt;c&lt;/b&gt;" style="text;html=1;align=center;verticalAlign=middle;resizable=0;points=[];autosize=1;strokeColor=none;fillColor=none;" vertex="1" parent="1">
          <mxGeometry x="260" y="398" width="30" height="30" as="geometry" />
        </mxCell>
        <mxCell id="snM5C4zPWYndFwAIb4mU-27" value="" style="rounded=0;whiteSpace=wrap;html=1;" vertex="1" parent="1">
          <mxGeometry x="330" y="340" width="40" height="120" as="geometry" />
        </mxCell>
        <mxCell id="snM5C4zPWYndFwAIb4mU-28" value="" style="endArrow=none;html=1;rounded=0;exitX=0;exitY=0.25;exitDx=0;exitDy=0;entryX=1;entryY=0.25;entryDx=0;entryDy=0;" edge="1" parent="1" source="snM5C4zPWYndFwAIb4mU-27" target="snM5C4zPWYndFwAIb4mU-27">
          <mxGeometry width="50" height="50" relative="1" as="geometry">
            <mxPoint x="370" y="330" as="sourcePoint" />
            <mxPoint x="420" y="280" as="targetPoint" />
          </mxGeometry>
        </mxCell>
        <mxCell id="snM5C4zPWYndFwAIb4mU-29" value="2" style="text;html=1;align=center;verticalAlign=middle;resizable=0;points=[];autosize=1;strokeColor=none;fillColor=none;fontColor=#FF3333;" vertex="1" parent="1">
          <mxGeometry x="335" y="340" width="30" height="30" as="geometry" />
        </mxCell>
        <mxCell id="snM5C4zPWYndFwAIb4mU-30" value="&lt;b&gt;a&lt;/b&gt;&lt;div&gt;&lt;b&gt;b&lt;/b&gt;&lt;/div&gt;" style="text;html=1;align=center;verticalAlign=middle;resizable=0;points=[];autosize=1;strokeColor=none;fillColor=none;" vertex="1" parent="1">
          <mxGeometry x="335" y="393" width="30" height="40" as="geometry" />
        </mxCell>
        <mxCell id="snM5C4zPWYndFwAIb4mU-33" value="" style="endArrow=classic;html=1;rounded=0;" edge="1" parent="1">
          <mxGeometry width="50" height="50" relative="1" as="geometry">
            <mxPoint x="220" y="407.76" as="sourcePoint" />
            <mxPoint x="255" y="407.76" as="targetPoint" />
          </mxGeometry>
        </mxCell>
        <mxCell id="snM5C4zPWYndFwAIb4mU-34" value="" style="endArrow=classic;html=1;rounded=0;" edge="1" parent="1">
          <mxGeometry width="50" height="50" relative="1" as="geometry">
            <mxPoint x="255" y="417.76" as="sourcePoint" />
            <mxPoint x="220" y="417.76" as="targetPoint" />
          </mxGeometry>
        </mxCell>
        <mxCell id="snM5C4zPWYndFwAIb4mU-35" value="" style="endArrow=classic;html=1;rounded=0;" edge="1" parent="1">
          <mxGeometry width="50" height="50" relative="1" as="geometry">
            <mxPoint x="295" y="407.76" as="sourcePoint" />
            <mxPoint x="330" y="408" as="targetPoint" />
          </mxGeometry>
        </mxCell>
        <mxCell id="snM5C4zPWYndFwAIb4mU-36" value="" style="endArrow=classic;html=1;rounded=0;" edge="1" parent="1">
          <mxGeometry width="50" height="50" relative="1" as="geometry">
            <mxPoint x="330" y="418" as="sourcePoint" />
            <mxPoint x="295" y="417.76" as="targetPoint" />
          </mxGeometry>
        </mxCell>
        <mxCell id="snM5C4zPWYndFwAIb4mU-37" value="" style="endArrow=classic;html=1;rounded=0;entryX=0.012;entryY=0.567;entryDx=0;entryDy=0;entryPerimeter=0;" edge="1" parent="1" target="snM5C4zPWYndFwAIb4mU-6">
          <mxGeometry width="50" height="50" relative="1" as="geometry">
            <mxPoint x="369" y="407.8" as="sourcePoint" />
            <mxPoint x="399" y="407.8" as="targetPoint" />
          </mxGeometry>
        </mxCell>
        <mxCell id="snM5C4zPWYndFwAIb4mU-38" value="" style="endArrow=classic;html=1;rounded=0;exitX=-0.009;exitY=0.641;exitDx=0;exitDy=0;exitPerimeter=0;" edge="1" parent="1" source="snM5C4zPWYndFwAIb4mU-6">
          <mxGeometry width="50" height="50" relative="1" as="geometry">
            <mxPoint x="399" y="417.8" as="sourcePoint" />
            <mxPoint x="369" y="417.8" as="targetPoint" />
          </mxGeometry>
        </mxCell>
        <mxCell id="snM5C4zPWYndFwAIb4mU-39" value="" style="endArrow=classic;html=1;rounded=0;" edge="1" parent="1">
          <mxGeometry width="50" height="50" relative="1" as="geometry">
            <mxPoint x="195" y="351.7857142857142" as="sourcePoint" />
            <mxPoint x="160" y="350" as="targetPoint" />
          </mxGeometry>
        </mxCell>
        <mxCell id="snM5C4zPWYndFwAIb4mU-40" value="词频" style="text;html=1;align=center;verticalAlign=middle;resizable=0;points=[];autosize=1;strokeColor=none;fillColor=none;" vertex="1" parent="1">
          <mxGeometry x="120" y="330" width="50" height="30" as="geometry" />
        </mxCell>
      </root>
    </mxGraphModel>
  </diagram>
</mxfile>
